<?xml version="1.0" standalone="no"?>
<!DOCTYPE svg PUBLIC "-//W3C//DTD SVG 20010904//EN"
 "http://www.w3.org/TR/2001/REC-SVG-20010904/DTD/svg10.dtd">
<svg version="1.0" xmlns="http://www.w3.org/2000/svg"
 width="227.000000pt" height="227.000000pt" viewBox="0 0 227.000000 227.000000"
 preserveAspectRatio="xMidYMid meet">
<metadata>
Created by potrace 1.11, written by Peter Selinger 2001-2013
</metadata>
<g transform="translate(0.000000,227.000000) scale(0.100000,-0.100000)"
fill="#000000" stroke="none">
<path d="M758 2246 c-53 -19 -83 -40 -113 -80 -74 -97 -62 -231 28 -317 55
-53 87 -61 251 -64 l148 -2 -3 156 c-4 152 -5 157 -33 202 -60 95 -183 141
-278 105z"/>
<path d="M1355 2247 c-78 -32 -119 -71 -152 -149 -8 -18 -12 -131 -13 -364 -1
-383 2 -400 71 -472 117 -120 319 -80 387 78 21 47 25 686 5 753 -16 54 -64
112 -116 138 -49 25 -140 33 -182 16z"/>
<path d="M167 1653 c-91 -27 -158 -114 -163 -211 -4 -92 30 -159 109 -213 l50
-34 357 -3 c341 -2 359 -1 403 18 194 86 192 354 -3 438 -47 21 -686 25 -753
5z"/>
<path d="M1973 1660 c-52 -11 -118 -56 -147 -100 -34 -52 -42 -98 -42 -245 l1
-120 134 -3 c156 -3 207 9 263 63 53 52 73 99 72 175 0 153 -133 261 -281 230z"/>
<path d="M160 1054 c-53 -17 -87 -45 -126 -104 -25 -38 -29 -52 -28 -114 1
-143 94 -238 234 -239 65 -1 118 22 167 70 57 57 66 91 67 253 l1 145 -135 2
c-95 1 -148 -2 -180 -13z"/>
<path d="M734 1047 c-60 -29 -110 -86 -128 -146 -20 -68 -15 -703 6 -751 40
-93 117 -144 218 -144 95 -1 160 36 211 119 l24 40 3 348 c4 392 1 411 -65
481 -70 74 -180 95 -269 53z"/>
<path d="M1349 1055 c-28 -9 -61 -31 -87 -57 -120 -121 -80 -317 78 -386 49
-22 693 -26 756 -5 144 48 208 229 124 352 -36 53 -79 84 -136 100 -62 17
-677 13 -735 -4z"/>
<path d="M1191 331 c1 -160 13 -203 70 -260 93 -93 261 -88 344 11 100 118 69
289 -66 362 -51 29 -58 30 -202 31 l-148 2 2 -146z"/>
</g>
</svg>
